<svg width="128" height="97" viewBox="0 0 128 97" fill="none" xmlns="http://www.w3.org/2000/svg">
<path fill-rule="evenodd" clip-rule="evenodd" d="M0 0V65.7992H13V13H18.4958V0H0ZM45.3269 0V13H115V17.1648H128V0H45.3269ZM128 31.2008H115V84H109.504V97H128V31.2008ZM82.6731 97V84H13V79.8352H0V97H82.6731Z" fill="black" style="mix-blend-mode:multiply"/>
<g filter="url(#filter0_ddi_1247_54)">
<path d="M12.9149 40.5485V6.14514H38.1277L38.0785 13.8613H20.3362L22.4987 11.6988V40.5485H12.9149Z" fill="black"/>
<path d="M43.4141 40.5485V13.9105H52.703V27.8684L63.8596 13.9105H72.4604V40.5485H63.1223V26.5414L52.0641 40.5485H43.4141Z" fill="black"/>
<path d="M99.3319 41.2366C99.2336 41.2366 99.0042 41.2366 98.6438 41.2366C98.2834 41.2366 97.9394 41.2366 97.6117 41.2366C97.2841 41.2366 97.0711 41.2366 96.9728 41.2366C90.9768 41.1383 86.3569 39.9096 83.1132 37.5505C79.9022 35.1587 78.2967 31.6855 78.2967 27.1312C78.2967 22.6424 79.9022 19.2512 83.1132 16.9576C86.3241 14.6313 90.9932 13.4354 97.1202 13.3698C97.1858 13.3698 97.3824 13.3698 97.71 13.3698C98.0704 13.3698 98.4145 13.3698 98.7421 13.3698C99.0698 13.3698 99.2664 13.3698 99.3319 13.3698C105.557 13.3698 110.357 14.533 113.732 16.8593C117.107 19.1529 118.794 22.5768 118.794 27.1312C118.794 31.7511 117.107 35.2569 113.732 37.6488C110.357 40.0407 105.557 41.2366 99.3319 41.2366ZM98.9387 34.4542C101.625 34.4542 103.755 34.2085 105.328 33.717C106.933 33.1927 108.097 32.39 108.817 31.3088C109.571 30.2275 109.948 28.835 109.948 27.1312C109.948 25.4602 109.587 24.1168 108.867 23.1011C108.146 22.0854 106.983 21.3482 105.377 20.8894C103.772 20.398 101.625 20.1522 98.9387 20.1522C98.8732 20.1522 98.6602 20.1522 98.2998 20.1522C97.9394 20.1522 97.6936 20.1522 97.5626 20.1522C95.0397 20.1522 93.0082 20.4143 91.4683 20.9386C89.9611 21.4301 88.8634 22.1837 88.1754 23.1994C87.5201 24.2151 87.1924 25.5257 87.1924 27.1312C87.1924 28.8022 87.5201 30.1784 88.1754 31.2596C88.8634 32.3081 89.9611 33.0945 91.4683 33.6187C93.0082 34.1429 95.0397 34.4214 97.5626 34.4542C97.6609 34.4542 97.8902 34.4542 98.2506 34.4542C98.6111 34.4542 98.8404 34.4542 98.9387 34.4542ZM94.4171 50.0832V4.08093H102.674V50.0832H94.4171Z" fill="black"/>
<path d="M37.9858 78.9451L29.8764 66.5108L37.396 62.0875L48.9949 78.9451H37.9858ZM19.3097 78.9451V52.3071H28.6477V78.9451H19.3097ZM25.8955 69.4596V62.1366H35.5284V69.4596H25.8955ZM38.3298 66.6582L29.5815 65.7736L38.5264 52.3071H48.4051L38.3298 66.6582Z" fill="black"/>
<path d="M58.48 88.9221C57.0711 88.9221 55.6458 88.6928 54.2041 88.2341C52.7952 87.8081 51.6485 87.2347 50.7638 86.5139L54.0076 79.9772C54.5646 80.4687 55.2035 80.8455 55.9243 81.1076C56.6779 81.4025 57.4151 81.55 58.136 81.55C59.1517 81.55 59.9544 81.3206 60.5442 80.8619C61.134 80.4032 61.6418 79.6824 62.0678 78.6994L63.2965 75.6031L64.0337 74.6693L73.0769 52.3071H81.9726L70.472 80.0264C69.5546 82.3199 68.4897 84.1056 67.2774 85.3835C66.0979 86.6941 64.7709 87.6115 63.2965 88.1358C61.8548 88.66 60.2493 88.9221 58.48 88.9221ZM62.1169 80.0755L50.3706 52.3071H59.9544L68.6044 73.8338L62.1169 80.0755Z" fill="black"/>
<path d="M99.8451 79.3875C96.8962 79.3875 94.2586 78.7977 91.9323 77.6182C89.6387 76.4386 87.8366 74.8167 86.526 72.7525C85.2154 70.6556 84.5601 68.2637 84.5601 65.577C84.5601 62.8902 85.2154 60.5148 86.526 58.4506C87.8366 56.3864 89.6387 54.7809 91.9323 53.6341C94.2586 52.4545 96.8962 51.8648 99.8451 51.8648C102.859 51.8648 105.464 52.5037 107.66 53.7815C109.855 55.0594 111.411 56.8615 112.329 59.1878L105.104 62.8738C104.481 61.6288 103.711 60.7277 102.794 60.1707C101.876 59.581 100.877 59.2861 99.7959 59.2861C98.7147 59.2861 97.7317 59.5318 96.8471 60.0233C95.9624 60.5148 95.2579 61.2356 94.7337 62.1858C94.2422 63.1032 93.9965 64.2336 93.9965 65.577C93.9965 66.9531 94.2422 68.1163 94.7337 69.0665C95.2579 70.0166 95.9624 70.7375 96.8471 71.229C97.7317 71.7204 98.7147 71.9662 99.7959 71.9662C100.877 71.9662 101.876 71.6877 102.794 71.1307C103.711 70.5409 104.481 69.6235 105.104 68.3784L112.329 72.0645C111.411 74.3908 109.855 76.1929 107.66 77.4707C105.464 78.7486 102.859 79.3875 99.8451 79.3875Z" fill="black"/>
</g>
<defs>
<filter id="filter0_ddi_1247_54" x="10.9149" y="3.08093" width="111.879" height="90.8412" filterUnits="userSpaceOnUse" color-interpolation-filters="sRGB">
<feFlood flood-opacity="0" result="BackgroundImageFix"/>
<feColorMatrix in="SourceAlpha" type="matrix" values="0 0 0 0 0 0 0 0 0 0 0 0 0 0 0 0 0 0 127 0" result="hardAlpha"/>
<feOffset dx="-1" dy="4"/>
<feGaussianBlur stdDeviation="0.5"/>
<feComposite in2="hardAlpha" operator="out"/>
<feColorMatrix type="matrix" values="0 0 0 0 0 0 0 0 0 0.979167 0 0 0 0 0.979167 0 0 0 0.87 0"/>
<feBlend mode="normal" in2="BackgroundImageFix" result="effect1_dropShadow_1247_54"/>
<feColorMatrix in="SourceAlpha" type="matrix" values="0 0 0 0 0 0 0 0 0 0 0 0 0 0 0 0 0 0 127 0" result="hardAlpha"/>
<feOffset dx="1" dy="2"/>
<feGaussianBlur stdDeviation="1.5"/>
<feComposite in2="hardAlpha" operator="out"/>
<feColorMatrix type="matrix" values="0 0 0 0 0.975 0 0 0 0 0 0 0 0 0 0 0 0 0 0.93 0"/>
<feBlend mode="normal" in2="effect1_dropShadow_1247_54" result="effect2_dropShadow_1247_54"/>
<feBlend mode="normal" in="SourceGraphic" in2="effect2_dropShadow_1247_54" result="shape"/>
<feColorMatrix in="SourceAlpha" type="matrix" values="0 0 0 0 0 0 0 0 0 0 0 0 0 0 0 0 0 0 127 0" result="hardAlpha"/>
<feOffset dx="2" dy="2"/>
<feComposite in2="hardAlpha" operator="arithmetic" k2="-1" k3="1"/>
<feColorMatrix type="matrix" values="0 0 0 0 0.166667 0 0 0 0 1 0 0 0 0 0.35 0 0 0 1 0"/>
<feBlend mode="normal" in2="shape" result="effect3_innerShadow_1247_54"/>
</filter>
</defs>
</svg>
