<svg width="246" height="140" viewBox="0 0 246 140" fill="none" xmlns="http://www.w3.org/2000/svg">
<g>
<path d="M22.5396 223.332L-58.7473 142.046L-28.9942 31.0058L82.0456 1.25275L163.332 82.5396L133.579 193.579L22.5396 223.332Z" stroke="black"/>
<path d="M74.9188 131.85L75.0641 131.991H75.2659H79.2592L105.293 158.077L98.0768 165.293L71.9906 139.259V135.266V135.064L71.8505 134.919L70.4148 133.43L70.087 133.09L69.7289 133.398C63.7543 138.534 55.9992 141.625 47.5626 141.625C40.8257 141.625 34.24 139.627 28.6384 135.885C23.0369 132.142 18.671 126.822 16.0929 120.598C13.5148 114.374 12.8402 107.525 14.1545 100.917C15.4688 94.3098 18.713 88.2405 23.4767 83.4767C28.2405 78.713 34.3098 75.4688 40.9173 74.1545C47.5248 72.8402 54.3737 73.5148 60.5978 76.0929C66.8219 78.671 72.1418 83.0369 75.8846 88.6384C79.6275 94.24 81.6252 100.826 81.6252 107.563V107.563C81.631 115.699 78.7111 123.566 73.3983 129.728L73.0895 130.087L73.43 130.415L74.9188 131.85ZM23.1347 107.563C23.1347 121.079 34.0463 131.991 47.5626 131.991C61.0789 131.991 71.9906 121.079 71.9906 107.563C71.9906 94.0463 61.0789 83.1347 47.5626 83.1347C34.0463 83.1347 23.1347 94.0463 23.1347 107.563Z" stroke="black"/>
</g>
</svg>
