<svg width="194" height="140" viewBox="0 0 194 140" fill="none" xmlns="http://www.w3.org/2000/svg">
<path d="M98.1513 -141.97L155.826 -104.167L156 -104.054L156.203 -104.096L223.702 -118.214L230.107 -49.5526L230.126 -49.3462L230.286 -49.2139L283.408 -5.24359L233.72 42.5736L233.571 42.7174L233.567 42.9248L232.311 111.873L163.946 102.839L163.74 102.811L163.576 102.938L108.887 144.944L73.3253 85.8614L73.2183 85.6837L73.017 85.6339L6.07692 69.0672L30.0975 4.42632L30.1698 4.23191L30.0832 4.04345L1.29915 -58.6216L66.814 -80.1444L67.011 -80.2091L67.1044 -80.3943L98.1513 -141.97Z" stroke="black"/>
</svg>
